<!DOCTYPE svg PUBLIC "-//W3C//DTD SVG 1.1//EN" "http://www.w3.org/Graphics/SVG/1.1/DTD/svg11.dtd">
<!-- Uploaded to: SVG Repo, www.svgrepo.com, Transformed by: SVG Repo Mixer Tools -->
<svg fill="#000000" width="800px" height="800px" viewBox="0 0 24 24" id="job" data-name="Flat Color" xmlns="http://www.w3.org/2000/svg" class="icon flat-color">
<g id="SVGRepo_bgCarrier" stroke-width="0"/>
<g id="SVGRepo_tracerCarrier" stroke-linecap="round" stroke-linejoin="round"/>
<g id="SVGRepo_iconCarrier">
<path id="secondary" d="M16,8H8A1,1,0,0,1,7,7V4A2,2,0,0,1,9,2h6a2,2,0,0,1,2,2V7A1,1,0,0,1,16,8ZM9,6h6V4H9Z" style="fill: #49546f;"/>
<rect id="primary" x="2" y="6" width="20" height="16" rx="2" style="fill: #293141;"/>
<path id="secondary-2" data-name="secondary" d="M15,14a1,1,0,0,1-1-1V12H7a1,1,0,0,1,0-2H17a1,1,0,0,1,0,2H16v1A1,1,0,0,1,15,14Z" style="fill: #49546f;"/>
</g>
</svg>